<svg width="24" height="24" viewBox="0 0 24 24" fill="none" xmlns="http://www.w3.org/2000/svg">
<path fill-rule="evenodd" clip-rule="evenodd" d="M15.6011 2.39896C15.2691 2.06702 14.7309 2.06702 14.399 2.39896C14.067 2.73091 14.067 3.2691 14.399 3.60104L18.9479 8.15H8.00002C6.44851 8.15 4.96054 8.76634 3.86345 9.86343C2.76636 10.9605 2.15002 12.4485 2.15002 14C2.15002 15.5515 2.76636 17.0395 3.86345 18.1366C4.96054 19.2337 6.44851 19.85 8.00002 19.85H15C15.4695 19.85 15.85 19.4694 15.85 19C15.85 18.5306 15.4695 18.15 15 18.15H8.00002C6.89938 18.15 5.84381 17.7128 5.06553 16.9345C4.28726 16.1562 3.85002 15.1006 3.85002 14C3.85002 12.8994 4.28726 11.8438 5.06553 11.0655C5.84381 10.2872 6.89938 9.85 8.00002 9.85H18.9479L14.399 14.399C14.067 14.7309 14.067 15.2691 14.399 15.601C14.7309 15.933 15.2691 15.933 15.6011 15.601L21.6011 9.60104C21.933 9.2691 21.933 8.73091 21.6011 8.39896L15.6011 2.39896Z" fill="black"/>
</svg>
