<svg width="24" height="24" viewBox="0 0 24 24" fill="none" xmlns="http://www.w3.org/2000/svg">
<path fill-rule="evenodd" clip-rule="evenodd" d="M17.85 5.05208V19C17.85 19.4694 17.4695 19.85 17 19.85C16.5306 19.85 16.15 19.4694 16.15 19V5.05208L13.6011 7.60104C13.2691 7.93298 12.7309 7.93298 12.399 7.60104C12.067 7.26909 12.067 6.7309 12.399 6.39895L16.399 2.39895C16.7309 2.06701 17.2691 2.06701 17.6011 2.39895L21.6011 6.39895C21.933 6.7309 21.933 7.26909 21.6011 7.60104C21.2691 7.93298 20.7309 7.93298 20.399 7.60104L17.85 5.05208ZM7.85002 4.99999C7.85002 4.53055 7.46947 4.14999 7.00002 4.14999C6.53058 4.14999 6.15002 4.53055 6.15002 4.99999V18.9479L3.60107 16.399C3.26912 16.067 2.73093 16.067 2.39898 16.399C2.06704 16.7309 2.06704 17.2691 2.39898 17.601L6.39898 21.601C6.73093 21.933 7.26912 21.933 7.60107 21.601L11.6011 17.601C11.933 17.2691 11.933 16.7309 11.6011 16.399C11.2691 16.067 10.7309 16.067 10.399 16.399L7.85002 18.9479V4.99999Z" fill="black"/>
</svg>
