<svg width="24" height="24" viewBox="0 0 24 24" fill="none" xmlns="http://www.w3.org/2000/svg">
<path fill-rule="evenodd" clip-rule="evenodd" d="M17.8499 6.77778C17.8499 6.2087 17.8506 5.799 17.878 5.47884C17.9061 5.15184 17.9554 5.03189 17.9788 4.99287C17.9848 4.98281 17.9872 4.98107 17.9904 4.97877L17.9908 4.97841C17.9973 4.97366 18.0248 4.9552 18.0943 4.93372C18.2502 4.88561 18.5211 4.85 18.9999 4.85C19.4787 4.85 19.7496 4.88561 19.9055 4.93372C19.9751 4.9552 20.0025 4.97366 20.009 4.97841L20.0095 4.97877C20.0126 4.98107 20.015 4.98281 20.021 4.99287C20.0444 5.03189 20.0937 5.15184 20.1218 5.47884C20.1492 5.799 20.1499 6.2087 20.1499 6.77778V6.79084V6.80399V6.81723V6.83055V6.84395V6.85745V6.87102V6.88468V6.89843V6.91225V6.92616V6.94016V6.95423V6.96839V6.98263V6.99695V7.01135V7.02583V7.04039V7.05504V7.06976V7.08456V7.09944V7.1144V7.12944V7.14455V7.15975V7.17502V7.19037V7.20579V7.22129V7.23687V7.25252V7.26825V7.28405V7.29993V7.31588V7.33191V7.34801V7.36418V7.38043V7.39674V7.41314V7.4296V7.44613V7.46274V7.47941V7.49616V7.51298V7.52987V7.54682V7.56385V7.58094V7.59811V7.61534V7.63264V7.65V7.66744V7.68494V7.70251V7.72014V7.73784V7.75561V7.77344V7.79133V7.80929V7.82732V7.8454V7.86355V7.88177V7.90005V7.91839V7.93679V7.95525V7.97378V7.99236V8.01101V8.02972V8.04849V8.06731V8.0862V8.10515V8.12415V8.14322V8.16234V8.18152V8.20075V8.22005V8.2394V8.2588V8.27827V8.29778V8.31736V8.33699V8.35667V8.37641V8.3962V8.41605V8.43595V8.4559V8.4759V8.49596V8.51607V8.53623V8.55644V8.57671V8.59702V8.61739V8.6378V8.65826V8.67878V8.69934V8.71995V8.74061V8.76132V8.78207V8.80287V8.82372V8.84462V8.86556V8.88655V8.90758V8.92866V8.94978V8.97095V8.99216V9.01342V9.03472V9.05606V9.07745V9.09888V9.12035V9.14186V9.16342V9.18501V9.20665V9.22833V9.25004V9.2718V9.2936V9.31543V9.33731V9.35922V9.38117V9.40316V9.42519V9.44725V9.46935V9.49149V9.51366V9.53587V9.55811V9.58039V9.60271V9.62506V9.64744V9.66985V9.6923V9.71479V9.7373V9.75985V9.78243V9.80504V9.82769V9.85036V9.87307V9.8958V9.91857V9.94136V9.96419V9.98704V10.0099V10.0328V10.0558V10.0787V10.1017V10.1248V10.1478V10.1709V10.194V10.2171V10.2403V10.2634V10.2866V10.3099V10.3331V10.3564V10.3797V10.403V10.4263V10.4497V10.4731V10.4965V10.5199V10.5434V10.5668V10.5903V10.6138V10.6374V10.6609V10.6845V10.7081V10.7317V10.7553V10.779V10.8026V10.8263V10.85V10.8737V10.8974V10.9211V10.9449V10.9687V10.9925V11.0162V11.0401V11.0639V11.0877V11.1116V11.1354V11.1593V11.1832V11.2071V11.231V11.2549V11.2789V11.3028V11.3268V11.3507V11.3747V11.3987V11.4227V11.4466V11.4706V11.4947V11.5187V11.5427V11.5667V11.5908V11.6148V11.6389V11.6629V11.687V11.711V11.7351V11.7592V11.7832V11.8073V11.8314V11.8555V11.8796V11.9036V11.9277V11.9518V11.9759V12V12.0241V12.0482V12.0723V12.0963V12.1204V12.1445V12.1686V12.1927V12.2168V12.2408V12.2649V12.289V12.313V12.3371V12.3611V12.3852V12.4092V12.4333V12.4573V12.4813V12.5053V12.5293V12.5534V12.5773V12.6013V12.6253V12.6493V12.6732V12.6972V12.7211V12.7451V12.769V12.7929V12.8168V12.8407V12.8646V12.8884V12.9123V12.9361V12.9599V12.9837V13.0075V13.0313V13.0551V13.0789V13.1026V13.1263V13.15V13.1737V13.1974V13.221V13.2447V13.2683V13.2919V13.3155V13.3391V13.3626V13.3862V13.4097V13.4332V13.4566V13.4801V13.5035V13.5269V13.5503V13.5737V13.597V13.6203V13.6436V13.6669V13.6901V13.7134V13.7366V13.7597V13.7829V13.806V13.8291V13.8522V13.8752V13.8983V13.9213V13.9442V13.9672V13.9901V14.013V14.0358V14.0586V14.0814V14.1042V14.1269V14.1496V14.1723V14.195V14.2176V14.2401V14.2627V14.2852V14.3077V14.3301V14.3526V14.3749V14.3973V14.4196V14.4419V14.4641V14.4863V14.5085V14.5306V14.5527V14.5748V14.5968V14.6188V14.6408V14.6627V14.6846V14.7064V14.7282V14.75V14.7717V14.7933V14.815V14.8366V14.8581V14.8796V14.9011V14.9225V14.9439V14.9653V14.9866V15.0078V15.029V15.0502V15.0713V15.0924V15.1134V15.1344V15.1554V15.1763V15.1971V15.2179V15.2387V15.2594V15.28V15.3007V15.3212V15.3417V15.3622V15.3826V15.403V15.4233V15.4436V15.4638V15.4839V15.504V15.5241V15.5441V15.5641V15.584V15.6038V15.6236V15.6433V15.663V15.6826V15.7022V15.7217V15.7412V15.7606V15.78V15.7992V15.8185V15.8377V15.8568V15.8758V15.8948V15.9138V15.9327V15.9515V15.9703V15.989V16.0076V16.0262V16.0447V16.0632V16.0816V16.1V16.1182V16.1364V16.1546V16.1727V16.1907V16.2087V16.2266V16.2444V16.2622V16.2799V16.2975V16.3151V16.3326V16.35V16.3674V16.3847V16.4019V16.4191V16.4361V16.4532V16.4701V16.487V16.5038V16.5206V16.5373V16.5539V16.5704V16.5869V16.6033V16.6196V16.6358V16.652V16.6681V16.6841V16.7001V16.7159V16.7317V16.7475V16.7631V16.7787V16.7942V16.8096V16.825V16.8402V16.8554V16.8706V16.8856V16.9006V16.9154V16.9302V16.945V16.9596V16.9742V16.9886V17.003V17.0174V17.0316V17.0458V17.0598V17.0738V17.0877V17.1016V17.1153V17.129V17.1426V17.156V17.1694V17.1828V17.196V17.2092V17.2222C20.1499 17.8944 20.1117 18.3497 20.0489 18.6586C19.9857 18.9689 19.9122 19.0565 19.8997 19.0698C19.8952 19.0746 19.8911 19.0784 19.878 19.0845C19.8611 19.0925 19.824 19.1064 19.7514 19.1189C19.5858 19.1474 19.3686 19.15 18.9999 19.15C18.6255 19.15 18.4055 19.1474 18.2387 19.1188C18.1656 19.1063 18.1289 19.0924 18.1128 19.0848C18.1008 19.0791 18.0979 19.0761 18.0944 19.0724C18.0834 19.0606 18.0108 18.9742 17.9486 18.6621C17.8868 18.352 17.8499 17.8956 17.8499 17.2222V6.77778ZM18.9999 3.15C18.0336 3.15 17.0407 3.25214 16.521 4.11824C16.2944 4.49589 16.2187 4.93149 16.1843 5.33366C16.1499 5.73476 16.1499 6.21672 16.1499 6.74641V6.74642V6.77778V17.2222C16.1499 17.9377 16.1875 18.523 16.2814 18.9942C16.3748 19.4633 16.5389 19.8977 16.8524 20.2332C17.1817 20.5855 17.5834 20.7313 17.9516 20.7944C18.2775 20.8502 18.6413 20.8501 18.9596 20.85L18.9999 20.85L19.0396 20.85C19.3531 20.8501 19.7145 20.8502 20.0397 20.7943C20.4068 20.7311 20.8072 20.5856 21.1369 20.2357C21.4516 19.9018 21.6189 19.4686 21.7147 18.9977C21.8109 18.5253 21.8499 17.939 21.8499 17.2222V17.2092V17.196V17.1828V17.1694V17.156V17.1426V17.129V17.1153V17.1016V17.0877V17.0738V17.0598V17.0458V17.0316V17.0174V17.003V16.9886V16.9742V16.9596V16.945V16.9302V16.9154V16.9006V16.8856V16.8706V16.8554V16.8402V16.825V16.8096V16.7942V16.7787V16.7631V16.7475V16.7317V16.7159V16.7001V16.6841V16.6681V16.652V16.6358V16.6196V16.6033V16.5869V16.5704V16.5539V16.5373V16.5206V16.5038V16.487V16.4701V16.4532V16.4361V16.4191V16.4019V16.3847V16.3674V16.35V16.3326V16.3151V16.2975V16.2799V16.2622V16.2444V16.2266V16.2087V16.1907V16.1727V16.1546V16.1364V16.1182V16.1V16.0816V16.0632V16.0447V16.0262V16.0076V15.989V15.9703V15.9515V15.9327V15.9138V15.8948V15.8758V15.8568V15.8377V15.8185V15.7992V15.78V15.7606V15.7412V15.7217V15.7022V15.6826V15.663V15.6433V15.6236V15.6038V15.584V15.5641V15.5441V15.5241V15.504V15.4839V15.4638V15.4436V15.4233V15.403V15.3826V15.3622V15.3417V15.3212V15.3007V15.28V15.2594V15.2387V15.2179V15.1971V15.1763V15.1554V15.1344V15.1134V15.0924V15.0713V15.0502V15.029V15.0078V14.9866V14.9653V14.9439V14.9225V14.9011V14.8796V14.8581V14.8366V14.815V14.7933V14.7717V14.75V14.7282V14.7064V14.6846V14.6627V14.6408V14.6188V14.5968V14.5748V14.5527V14.5306V14.5085V14.4863V14.4641V14.4419V14.4196V14.3973V14.3749V14.3526V14.3301V14.3077V14.2852V14.2627V14.2401V14.2176V14.195V14.1723V14.1496V14.1269V14.1042V14.0814V14.0586V14.0358V14.013V13.9901V13.9672V13.9442V13.9213V13.8983V13.8752V13.8522V13.8291V13.806V13.7829V13.7597V13.7366V13.7134V13.6901V13.6669V13.6436V13.6203V13.597V13.5737V13.5503V13.5269V13.5035V13.4801V13.4566V13.4332V13.4097V13.3862V13.3626V13.3391V13.3155V13.2919V13.2683V13.2447V13.221V13.1974V13.1737V13.15V13.1263V13.1026V13.0789V13.0551V13.0313V13.0075V12.9837V12.9599V12.9361V12.9123V12.8884V12.8646V12.8407V12.8168V12.7929V12.769V12.7451V12.7211V12.6972V12.6732V12.6493V12.6253V12.6013V12.5773V12.5534V12.5293V12.5053V12.4813V12.4573V12.4333V12.4092V12.3852V12.3611V12.3371V12.313V12.289V12.2649V12.2408V12.2168V12.1927V12.1686V12.1445V12.1204V12.0963V12.0723V12.0482V12.0241V12V11.9759V11.9518V11.9277V11.9036V11.8796V11.8555V11.8314V11.8073V11.7832V11.7592V11.7351V11.711V11.687V11.6629V11.6389V11.6148V11.5908V11.5667V11.5427V11.5187V11.4947V11.4706V11.4466V11.4227V11.3987V11.3747V11.3507V11.3268V11.3028V11.2789V11.2549V11.231V11.2071V11.1832V11.1593V11.1354V11.1116V11.0877V11.0639V11.0401V11.0162V10.9925V10.9687V10.9449V10.9211V10.8974V10.8737V10.85V10.8263V10.8026V10.779V10.7553V10.7317V10.7081V10.6845V10.6609V10.6374V10.6138V10.5903V10.5668V10.5434V10.5199V10.4965V10.4731V10.4497V10.4263V10.403V10.3797V10.3564V10.3331V10.3099V10.2866V10.2634V10.2403V10.2171V10.194V10.1709V10.1478V10.1248V10.1017V10.0787V10.0558V10.0328V10.0099V9.98704V9.96419V9.94136V9.91857V9.8958V9.87307V9.85036V9.82769V9.80504V9.78243V9.75985V9.7373V9.71479V9.6923V9.66985V9.64744V9.62506V9.60271V9.58039V9.55811V9.53587V9.51366V9.49149V9.46935V9.44725V9.42519V9.40316V9.38117V9.35922V9.33731V9.31543V9.2936V9.2718V9.25004V9.22833V9.20665V9.18501V9.16342V9.14186V9.12035V9.09888V9.07745V9.05606V9.03472V9.01342V8.99216V8.97095V8.94978V8.92866V8.90758V8.88655V8.86556V8.84462V8.82372V8.80287V8.78207V8.76132V8.74061V8.71995V8.69934V8.67878V8.65826V8.6378V8.61739V8.59702V8.57671V8.55644V8.53623V8.51607V8.49596V8.4759V8.4559V8.43595V8.41605V8.3962V8.37641V8.35667V8.33699V8.31736V8.29778V8.27827V8.2588V8.2394V8.22005V8.20075V8.18152V8.16234V8.14322V8.12415V8.10515V8.0862V8.06731V8.04849V8.02972V8.01101V7.99236V7.97378V7.95525V7.93679V7.91839V7.90005V7.88177V7.86355V7.8454V7.82732V7.80929V7.79133V7.77344V7.75561V7.73784V7.72014V7.70251V7.68494V7.66744V7.65V7.63264V7.61534V7.59811V7.58094V7.56385V7.54682V7.52987V7.51298V7.49616V7.47941V7.46274V7.44613V7.4296V7.41314V7.39674V7.38043V7.36418V7.34801V7.33191V7.31588V7.29993V7.28405V7.26825V7.25252V7.23687V7.22129V7.20579V7.19037V7.17502V7.15975V7.14455V7.12944V7.1144V7.09944V7.08456V7.06976V7.05504V7.04039V7.02583V7.01135V6.99695V6.98263V6.96839V6.95423V6.94016V6.92616V6.91225V6.89843V6.88468V6.87102V6.85745V6.84395V6.83055V6.81723V6.80399V6.79084V6.77778L21.8499 6.74641C21.8499 6.21671 21.8499 5.73476 21.8156 5.33366C21.7811 4.93149 21.7054 4.49589 21.4788 4.11824C20.9591 3.25214 19.9662 3.15 18.9999 3.15ZM10.8789 9.49996C10.8539 9.7254 10.8529 9.98789 10.8529 10.3333L10.8529 14L10.8529 17.6667C10.8529 17.6748 10.8528 17.683 10.8525 17.6912C10.8278 18.5507 10.9842 18.8412 11.0772 18.9408C11.1575 19.0269 11.3595 19.15 11.9996 19.15C12.6254 19.15 12.8336 19.0284 12.9192 18.9376C13.0143 18.8368 13.1741 18.5457 13.1468 17.6939C13.1465 17.6848 13.1464 17.6758 13.1464 17.6667V14L13.1464 10.3333C13.1464 9.98789 13.1454 9.7254 13.1204 9.49996C13.0957 9.27778 13.0539 9.16411 13.0176 9.10346L13.0164 9.1014C12.993 9.06168 12.8681 8.85 11.9996 8.85C11.1311 8.85 11.0063 9.06168 10.9829 9.1014L10.9817 9.10346C10.9453 9.16411 10.9035 9.27778 10.8789 9.49996ZM9.52328 8.22987C10.0023 7.43028 10.8877 7.15 11.9996 7.15C13.1115 7.15 13.997 7.43028 14.476 8.22987C14.6892 8.58589 14.7722 8.97222 14.81 9.31254C14.8464 9.64099 14.8464 9.99359 14.8464 10.3086L14.8464 10.3333L14.8464 14V17.6534C14.876 18.6293 14.7261 19.4995 14.1559 20.104C13.5734 20.7216 12.7539 20.85 11.9996 20.85C11.2381 20.85 10.4152 20.7231 9.83443 20.1008C9.26869 19.4947 9.1264 18.6235 9.15289 17.6547L9.15289 14L9.15288 10.3333L9.15288 10.3086C9.15285 9.99359 9.15283 9.64099 9.18926 9.31254C9.22701 8.97222 9.31002 8.58589 9.52328 8.22987ZM3.87699 14.5196C3.85077 14.7834 3.8499 15.1018 3.8499 15.5278V18.2943C3.8499 18.7748 3.96608 18.9063 4.02239 18.9539C4.114 19.0314 4.36195 19.15 4.99991 19.15C5.62361 19.15 5.87535 19.0327 5.97195 18.9517C6.03276 18.9007 6.14991 18.7665 6.14991 18.2943V18.2872V18.2801V18.273V18.2659V18.2589V18.2518V18.2448V18.2378V18.2308V18.2238V18.2168V18.2099V18.2029V18.196V18.1891V18.1822V18.1753V18.1684V18.1616V18.1547V18.1479V18.1411V18.1343V18.1275V18.1207V18.1139V18.1072V18.1004V18.0937V18.087V18.0803V18.0736V18.067V18.0603V18.0537V18.047V18.0404V18.0338V18.0272V18.0206V18.014V18.0075V18.0009V17.9944V17.9879V17.9814V17.9749V17.9684V17.962V17.9555V17.949V17.9426V17.9362V17.9298V17.9234V17.917V17.9106V17.9043V17.8979V17.8916V17.8853V17.879V17.8727V17.8664V17.8601V17.8538V17.8476V17.8413V17.8351V17.8289V17.8227V17.8165V17.8103V17.8041V17.798V17.7918V17.7857V17.7795V17.7734V17.7673V17.7612V17.7551V17.749V17.743V17.7369V17.7309V17.7248V17.7188V17.7128V17.7068V17.7008V17.6948V17.6889V17.6829V17.677V17.671V17.6651V17.6592V17.6533V17.6474V17.6415V17.6356V17.6297V17.6239V17.618V17.6122V17.6063V17.6005V17.5947V17.5889V17.5831V17.5773V17.5716V17.5658V17.56V17.5543V17.5485V17.5428V17.5371V17.5314V17.5257V17.52V17.5143V17.5086V17.503V17.4973V17.4917V17.486V17.4804V17.4748V17.4692V17.4636V17.458V17.4524V17.4468V17.4412V17.4357V17.4301V17.4246V17.4191V17.4135V17.408V17.4025V17.397V17.3915V17.386V17.3805V17.375V17.3696V17.3641V17.3587V17.3532V17.3478V17.3424V17.3369V17.3315V17.3261V17.3207V17.3153V17.31V17.3046V17.2992V17.2938V17.2885V17.2831V17.2778V17.2725V17.2671V17.2618V17.2565V17.2512V17.2459V17.2406V17.2353V17.23V17.2248V17.2195V17.2142V17.209V17.2037V17.1985V17.1933V17.188V17.1828V17.1776V17.1724V17.1672V17.162V17.1568V17.1516V17.1464V17.1412V17.1361V17.1309V17.1257V17.1206V17.1154V17.1103V17.1052V17.1V17.0949V17.0898V17.0847V17.0796V17.0745V17.0694V17.0643V17.0592V17.0541V17.049V17.0439V17.0389V17.0338V17.0287V17.0237V17.0186V17.0136V17.0085V17.0035V16.9985V16.9934V16.9884V16.9834V16.9784V16.9734V16.9684V16.9634V16.9584V16.9534V16.9484V16.9434V16.9384V16.9334V16.9285V16.9235V16.9185V16.9136V16.9086V16.9036V16.8987V16.8937V16.8888V16.8838V16.8789V16.874V16.869V16.8641V16.8592V16.8543V16.8493V16.8444V16.8395V16.8346V16.8297V16.8248V16.8199V16.815V16.8101V16.8052V16.8003V16.7954V16.7905V16.7856V16.7808V16.7759V16.771V16.7661V16.7613V16.7564V16.7515V16.7467V16.7418V16.7369V16.7321V16.7272V16.7224V16.7175V16.7127V16.7078V16.703V16.6981V16.6933V16.6884V16.6836V16.6788V16.6739V16.6691V16.6642V16.6594V16.6546V16.6497V16.6449V16.6401V16.6352V16.6304V16.6256V16.6208V16.6159V16.6111V16.6063V16.6015V16.5967V16.5918V16.587V16.5822V16.5774V16.5726V16.5677V16.5629V16.5581V16.5533V16.5485V16.5436V16.5388V16.534V16.5292V16.5244V16.5196V16.5147V16.5099V16.5051V16.5003V16.4955V16.4907V16.4858V16.481V16.4762V16.4714V16.4666V16.4617V16.4569V16.4521V16.4473V16.4425V16.4376V16.4328V16.428V16.4232V16.4183V16.4135V16.4087V16.4038V16.399V16.3942V16.3893V16.3845V16.3797V16.3748V16.37V16.3651V16.3603V16.3555V16.3506V16.3458V16.3409V16.3361V16.3312V16.3263V16.3215V16.3166V16.3118V16.3069V16.302V16.2972V16.2923V16.2874V16.2826V16.2777V16.2728V16.2679V16.263V16.2582V16.2533V16.2484V16.2435V16.2386V16.2337V16.2288V16.2239V16.219V16.2141V16.2091V16.2042V16.1993V16.1944V16.1895V16.1845V16.1796V16.1747V16.1697V16.1648V16.1598V16.1549V16.1499V16.145V16.14V16.135V16.1301V16.1251V16.1201V16.1151V16.1102V16.1052V16.1002V16.0952V16.0902V16.0852V16.0802V16.0752V16.0702V16.0651V16.0601V16.0551V16.05V16.045V16.04V16.0349V16.0299V16.0248V16.0198V16.0147V16.0096V16.0045V15.9995V15.9944V15.9893V15.9842V15.9791V15.974V15.9689V15.9638V15.9586V15.9535V15.9484V15.9432V15.9381V15.9329V15.9278V15.9226V15.9175V15.9123V15.9071V15.9019V15.8968V15.8916V15.8864V15.8812V15.8759V15.8707V15.8655V15.8603V15.855V15.8498V15.8445V15.8393V15.834V15.8288V15.8235V15.8182V15.8129V15.8076V15.8023V15.797V15.7917V15.7864V15.781V15.7757V15.7704V15.765V15.7597V15.7543V15.7489V15.7436V15.7382V15.7328V15.7274V15.722V15.7166V15.7111V15.7057V15.7003V15.6948V15.6894V15.6839V15.6785V15.673V15.6675V15.662V15.6565V15.651V15.6455V15.64V15.6344V15.6289V15.6234V15.6178V15.6122V15.6067V15.6011V15.5955V15.5899V15.5843V15.5787V15.5731V15.5674V15.5618V15.5561V15.5505V15.5448V15.5429L6.14298 15.3406V15.3406C6.13193 15.0114 6.12329 14.754 6.09873 14.5269C6.06924 14.2543 6.02483 14.1272 5.98949 14.0653L5.98882 14.0638C5.97981 14.0437 5.89324 13.85 4.99991 13.85C4.10266 13.85 3.99818 14.0458 3.9838 14.0728L3.9827 14.0748C3.94822 14.1335 3.90315 14.2563 3.87699 14.5196ZM2.5171 13.2134C3.00736 12.3793 3.9251 12.15 4.99991 12.15C6.07667 12.15 6.98566 12.3806 7.46614 13.2229C7.67343 13.5863 7.75033 13.9879 7.78887 14.3441C7.82089 14.6402 7.83195 14.9752 7.84283 15.3046C7.84496 15.3692 7.84709 15.4336 7.84937 15.4975L7.84966 15.5072L7.84991 15.5278V15.5335V15.5392V15.5448V15.5505V15.5561V15.5618V15.5674V15.5731V15.5787V15.5843V15.5899V15.5955V15.6011V15.6067V15.6122V15.6178V15.6234V15.6289V15.6344V15.64V15.6455V15.651V15.6565V15.662V15.6675V15.673V15.6785V15.6839V15.6894V15.6948V15.7003V15.7057V15.7111V15.7166V15.722V15.7274V15.7328V15.7382V15.7436V15.7489V15.7543V15.7597V15.765V15.7704V15.7757V15.781V15.7864V15.7917V15.797V15.8023V15.8076V15.8129V15.8182V15.8235V15.8288V15.834V15.8393V15.8445V15.8498V15.855V15.8603V15.8655V15.8707V15.8759V15.8812V15.8864V15.8916V15.8968V15.9019V15.9071V15.9123V15.9175V15.9226V15.9278V15.9329V15.9381V15.9432V15.9484V15.9535V15.9586V15.9638V15.9689V15.974V15.9791V15.9842V15.9893V15.9944V15.9995V16.0045V16.0096V16.0147V16.0198V16.0248V16.0299V16.0349V16.04V16.045V16.05V16.0551V16.0601V16.0651V16.0702V16.0752V16.0802V16.0852V16.0902V16.0952V16.1002V16.1052V16.1102V16.1151V16.1201V16.1251V16.1301V16.135V16.14V16.145V16.1499V16.1549V16.1598V16.1648V16.1697V16.1747V16.1796V16.1845V16.1895V16.1944V16.1993V16.2042V16.2091V16.2141V16.219V16.2239V16.2288V16.2337V16.2386V16.2435V16.2484V16.2533V16.2582V16.263V16.2679V16.2728V16.2777V16.2826V16.2874V16.2923V16.2972V16.302V16.3069V16.3118V16.3166V16.3215V16.3263V16.3312V16.3361V16.3409V16.3458V16.3506V16.3555V16.3603V16.3651V16.37V16.3748V16.3797V16.3845V16.3893V16.3942V16.399V16.4038V16.4087V16.4135V16.4183V16.4232V16.428V16.4328V16.4376V16.4425V16.4473V16.4521V16.4569V16.4617V16.4666V16.4714V16.4762V16.481V16.4858V16.4907V16.4955V16.5003V16.5051V16.5099V16.5147V16.5196V16.5244V16.5292V16.534V16.5388V16.5436V16.5485V16.5533V16.5581V16.5629V16.5677V16.5726V16.5774V16.5822V16.587V16.5918V16.5967V16.6015V16.6063V16.6111V16.6159V16.6208V16.6256V16.6304V16.6352V16.6401V16.6449V16.6497V16.6546V16.6594V16.6642V16.6691V16.6739V16.6788V16.6836V16.6884V16.6933V16.6981V16.703V16.7078V16.7127V16.7175V16.7224V16.7272V16.7321V16.7369V16.7418V16.7467V16.7515V16.7564V16.7613V16.7661V16.771V16.7759V16.7808V16.7856V16.7905V16.7954V16.8003V16.8052V16.8101V16.815V16.8199V16.8248V16.8297V16.8346V16.8395V16.8444V16.8493V16.8543V16.8592V16.8641V16.869V16.874V16.8789V16.8838V16.8888V16.8937V16.8987V16.9036V16.9086V16.9136V16.9185V16.9235V16.9285V16.9334V16.9384V16.9434V16.9484V16.9534V16.9584V16.9634V16.9684V16.9734V16.9784V16.9834V16.9884V16.9934V16.9985V17.0035V17.0085V17.0136V17.0186V17.0237V17.0287V17.0338V17.0389V17.0439V17.049V17.0541V17.0592V17.0643V17.0694V17.0745V17.0796V17.0847V17.0898V17.0949V17.1V17.1052V17.1103V17.1154V17.1206V17.1257V17.1309V17.1361V17.1412V17.1464V17.1516V17.1568V17.162V17.1672V17.1724V17.1776V17.1828V17.188V17.1933V17.1985V17.2037V17.209V17.2142V17.2195V17.2248V17.23V17.2353V17.2406V17.2459V17.2512V17.2565V17.2618V17.2671V17.2725V17.2778V17.2831V17.2885V17.2938V17.2992V17.3046V17.31V17.3153V17.3207V17.3261V17.3315V17.3369V17.3424V17.3478V17.3532V17.3587V17.3641V17.3696V17.375V17.3805V17.386V17.3915V17.397V17.4025V17.408V17.4135V17.4191V17.4246V17.4301V17.4357V17.4412V17.4468V17.4524V17.458V17.4636V17.4692V17.4748V17.4804V17.486V17.4917V17.4973V17.503V17.5086V17.5143V17.52V17.5257V17.5314V17.5371V17.5428V17.5485V17.5543V17.56V17.5658V17.5716V17.5773V17.5831V17.5889V17.5947V17.6005V17.6063V17.6122V17.618V17.6239V17.6297V17.6356V17.6415V17.6474V17.6533V17.6592V17.6651V17.671V17.677V17.6829V17.6889V17.6948V17.7008V17.7068V17.7128V17.7188V17.7248V17.7309V17.7369V17.743V17.749V17.7551V17.7612V17.7673V17.7734V17.7795V17.7857V17.7918V17.798V17.8041V17.8103V17.8165V17.8227V17.8289V17.8351V17.8413V17.8476V17.8538V17.8601V17.8664V17.8727V17.879V17.8853V17.8916V17.8979V17.9043V17.9106V17.917V17.9234V17.9298V17.9362V17.9426V17.949V17.9555V17.962V17.9684V17.9749V17.9814V17.9879V17.9944V18.0009V18.0075V18.014V18.0206V18.0272V18.0338V18.0404V18.047V18.0537V18.0603V18.067V18.0736V18.0803V18.087V18.0937V18.1004V18.1072V18.1139V18.1207V18.1275V18.1343V18.1411V18.1479V18.1547V18.1616V18.1684V18.1753V18.1822V18.1891V18.196V18.2029V18.2099V18.2168V18.2238V18.2308V18.2378V18.2448V18.2518V18.2589V18.2659V18.273V18.2801V18.2872V18.2943C7.84991 19.0374 7.6582 19.756 7.06457 20.2541C6.50674 20.7221 5.75848 20.85 4.99991 20.85C4.23389 20.85 3.48183 20.7234 2.92443 20.2518C2.33174 19.7504 2.1499 19.029 2.1499 18.2943V15.5278V15.5003V15.5003C2.14988 15.1086 2.14987 14.7083 2.18532 14.3515C2.22165 13.9859 2.30158 13.5801 2.5171 13.2134Z" fill="black"/>
</svg>
