<svg width="24" height="24" viewBox="0 0 24 24" fill="none" xmlns="http://www.w3.org/2000/svg">
<path fill-rule="evenodd" clip-rule="evenodd" d="M11.55 3.84999C16.0805 3.84999 19.7 7.46944 19.7 12C19.7 12.9993 19.5179 13.9914 19.1607 14.8843C19.0777 15.0919 19.0798 15.3238 19.1666 15.5298L20.2698 18.15H17.15C16.9569 18.15 16.7697 18.2157 16.619 18.3363C15.2547 19.4277 13.4386 20.15 11.55 20.15C7.01939 20.15 3.39995 16.5306 3.39995 12C3.39995 7.46944 7.01939 3.84999 11.55 3.84999ZM21.4 12C21.4 6.53055 17.0194 2.14999 11.55 2.14999C6.08051 2.14999 1.69995 6.53055 1.69995 12C1.69995 17.4694 6.08051 21.85 11.55 21.85C13.7498 21.85 15.8343 21.0549 17.4405 19.85H21.2487C21.9997 19.85 22.5079 19.0846 22.2165 18.3925L20.8647 15.1822C21.2232 14.1682 21.4 13.0812 21.4 12ZM7.54997 11.35C6.91484 11.35 6.39997 11.8649 6.39997 12.5C6.39997 13.1351 6.91484 13.65 7.54997 13.65C8.1851 13.65 8.69997 13.1351 8.69997 12.5C8.69997 11.8649 8.1851 11.35 7.54997 11.35ZM11.55 11.35C10.9148 11.35 10.4 11.8649 10.4 12.5C10.4 13.1351 10.9148 13.65 11.55 13.65C12.1851 13.65 12.7 13.1351 12.7 12.5C12.7 11.8649 12.1851 11.35 11.55 11.35ZM15.55 11.35C14.9148 11.35 14.4 11.8649 14.4 12.5C14.4 13.1351 14.9148 13.65 15.55 13.65C16.1851 13.65 16.7 13.1351 16.7 12.5C16.7 11.8649 16.1851 11.35 15.55 11.35Z" fill="black"/>
</svg>
