<svg width="24" height="24" viewBox="0 0 24 24" fill="none" xmlns="http://www.w3.org/2000/svg">
<path fill-rule="evenodd" clip-rule="evenodd" d="M3.85002 12C3.85002 7.49888 7.4989 3.85 12 3.85C12.8909 3.85 13.7468 3.99264 14.5471 4.25568C14.9931 4.40226 15.4734 4.15956 15.62 3.71359C15.7666 3.26762 15.5239 2.78726 15.0779 2.64068C14.1085 2.32203 13.0735 2.15 12 2.15C6.56002 2.15 2.15002 6.56 2.15002 12C2.15002 17.44 6.56002 21.85 12 21.85C17.44 21.85 21.85 17.44 21.85 12C21.85 11.5306 21.4695 11.15 21 11.15C20.5306 11.15 20.15 11.5306 20.15 12C20.15 16.5011 16.5011 20.15 12 20.15C7.4989 20.15 3.85002 16.5011 3.85002 12ZM19.6024 7.59974C19.9336 7.26707 19.9324 6.72888 19.5998 6.39766C19.2671 6.06643 18.7289 6.0676 18.3977 6.40027L12.0496 12.7759L9.62095 10.1781C9.30036 9.83512 8.76248 9.81701 8.41955 10.1376C8.07662 10.4582 8.05851 10.9961 8.3791 11.339L11.4094 14.5805C11.567 14.749 11.7863 14.8463 12.0169 14.8499C12.2476 14.8535 12.4699 14.7632 12.6327 14.5997L19.6024 7.59974Z" fill="black"/>
</svg>
