<svg width="24" height="24" viewBox="0 0 24 24" fill="none" xmlns="http://www.w3.org/2000/svg">
<path fill-rule="evenodd" clip-rule="evenodd" d="M5.71431 4.85C5.51316 4.85 5.30143 4.93731 5.13155 5.12449C4.95919 5.3144 4.85002 5.58818 4.85002 5.88889V19.1111C4.85002 19.4118 4.95919 19.6856 5.13155 19.8755C5.30143 20.0627 5.51316 20.15 5.71431 20.15H15.15V12V5.88889C15.15 5.58818 15.0409 5.3144 14.8685 5.12449C14.6986 4.93731 14.4869 4.85 14.2857 4.85H5.71431ZM5.71431 21.85H16H18C18.7559 21.85 19.4808 21.5497 20.0153 21.0153C20.5498 20.4808 20.85 19.7559 20.85 19V12C20.85 11.5306 20.4695 11.15 20 11.15H16.85V5.88889C16.85 5.18766 16.598 4.50055 16.1273 3.982C15.6542 3.4607 14.9939 3.15 14.2857 3.15H5.71431C5.00615 3.15 4.34581 3.4607 3.8727 3.982C3.40208 4.50055 3.15002 5.18766 3.15002 5.88889V19.1111C3.15002 19.8123 3.40208 20.4994 3.8727 21.018C4.34581 21.5393 5.00615 21.85 5.71431 21.85ZM16.85 20.15V12.85H19.15V19C19.15 19.305 19.0289 19.5975 18.8132 19.8132C18.5975 20.0288 18.305 20.15 18 20.15H16.85ZM8.00002 8.15C7.53058 8.15 7.15002 8.53056 7.15002 9C7.15002 9.46944 7.53058 9.85 8.00002 9.85H12C12.4695 9.85 12.85 9.46944 12.85 9C12.85 8.53056 12.4695 8.15 12 8.15H8.00002ZM7.15002 12C7.15002 11.5306 7.53058 11.15 8.00002 11.15H12C12.4695 11.15 12.85 11.5306 12.85 12C12.85 12.4694 12.4695 12.85 12 12.85H8.00002C7.53058 12.85 7.15002 12.4694 7.15002 12ZM8.00002 15.15C7.53058 15.15 7.15002 15.5306 7.15002 16C7.15002 16.4694 7.53058 16.85 8.00002 16.85H11C11.4695 16.85 11.85 16.4694 11.85 16C11.85 15.5306 11.4695 15.15 11 15.15H8.00002Z" fill="black"/>
</svg>
