<svg width="24" height="24" viewBox="0 0 24 24" fill="none" xmlns="http://www.w3.org/2000/svg">
<path d="M15.0001 18.2423C15.1811 18.0614 15.2919 17.8099 15.2916 17.5338V17.4123C15.2916 16.8593 14.8439 16.4117 14.2917 16.4124H8.82815L18.0703 7.17026C18.4606 6.77994 18.4606 6.14637 18.0703 5.75605C17.6799 5.36573 17.0464 5.36573 16.656 5.75605L7.41394 14.9982V9.53465C7.41394 8.9817 6.9663 8.53405 6.41405 8.53476H6.29251C5.73956 8.53476 5.29191 8.9824 5.29262 9.53465V17.5338C5.29262 18.0868 5.74026 18.5344 6.29251 18.5337H14.2917C14.5681 18.5337 14.8192 18.4232 15.0001 18.2423Z" fill="black"/>
</svg>
