<svg width="24" height="24" viewBox="0 0 24 24" fill="none" xmlns="http://www.w3.org/2000/svg">
<path fill-rule="evenodd" clip-rule="evenodd" d="M3.85002 12C3.85002 7.49887 7.4989 3.84999 12 3.84999C16.5011 3.84999 20.15 7.49887 20.15 12C20.15 16.5011 16.5011 20.15 12 20.15C7.4989 20.15 3.85002 16.5011 3.85002 12ZM12 2.14999C6.56002 2.14999 2.15002 6.55999 2.15002 12C2.15002 17.44 6.56002 21.85 12 21.85C17.44 21.85 21.85 17.44 21.85 12C21.85 6.55999 17.44 2.14999 12 2.14999ZM11.15 12C11.15 12.4694 11.5306 12.85 12 12.85C12.4695 12.85 12.85 12.4694 12.85 12V8.00001C12.85 7.53056 12.4695 7.15001 12 7.15001C11.5306 7.15001 11.15 7.53056 11.15 8.00001V12ZM12 14.35C11.3649 14.35 10.85 14.8649 10.85 15.5C10.85 16.1351 11.3649 16.65 12 16.65C12.6352 16.65 13.15 16.1351 13.15 15.5C13.15 14.8649 12.6352 14.35 12 14.35Z" fill="black"/>
</svg>
