<svg width="24" height="24" viewBox="0 0 24 24" fill="none" xmlns="http://www.w3.org/2000/svg">
<path fill-rule="evenodd" clip-rule="evenodd" d="M3.8499 10C3.8499 6.60345 6.60335 3.85 9.9999 3.85C13.3965 3.85 16.1499 6.60345 16.1499 10C16.1499 13.3966 13.3965 16.15 9.9999 16.15C6.60335 16.15 3.8499 13.3966 3.8499 10ZM9.9999 2.15C5.66447 2.15 2.1499 5.66457 2.1499 10C2.1499 14.3354 5.66447 17.85 9.9999 17.85C11.8614 17.85 13.5716 17.2021 14.9172 16.1194L20.3989 21.601C20.7308 21.933 21.269 21.933 21.6009 21.601C21.9329 21.2691 21.9329 20.7309 21.6009 20.399L16.1193 14.9173C17.202 13.5717 17.8499 11.8615 17.8499 10C17.8499 5.66457 14.3353 2.15 9.9999 2.15Z" fill="black"/>
</svg>
