<svg width="24" height="24" viewBox="0 0 24 24" fill="none" xmlns="http://www.w3.org/2000/svg">
<path d="M8.65647 5.75605C8.47554 5.93698 8.36471 6.18841 8.36507 6.46454V6.58607C8.36507 7.13903 8.81271 7.58667 9.36496 7.58597H14.8285L5.58636 16.8281C5.19603 17.2184 5.19603 17.852 5.58636 18.2423C5.97668 18.6326 6.61025 18.6326 7.00057 18.2423L16.2427 9.00018V14.4637C16.2427 15.0166 16.6903 15.4643 17.2426 15.4636H17.3641C17.9171 15.4636 18.3647 15.0159 18.364 14.4637V6.46454C18.364 5.91158 17.9164 5.46394 17.3641 5.46465H9.36496C9.08848 5.46465 8.8374 5.57512 8.65647 5.75605Z" fill="black"/>
</svg>
